<svg xmlns="http://www.w3.org/2000/svg" width="60.704" height="98.148" viewBox="0 0 60.704 98.148">
    <g id="Groupe_34" data-name="Groupe 34" transform="translate(1735.059 -258.965)">
      <g id="Groupe_15" data-name="Groupe 15" transform="translate(-1719.818 284.855)">
        <path id="Tracé_40" data-name="Tracé 40" d="M-1661.769,356.393c-1.8,4.366-1.236,9.663-1.557,14.29q-.27,3.889-.7,7.766c-.273,2.48-.457,4.931-2.685,6.483-.514.358-.274.472-.749.288-.46-.178-.591-.955-.94-1.2.194.138-.914.368.208.305a6.11,6.11,0,0,0,1.265-.264,6.618,6.618,0,0,0,4.028-3.38c2.194-4.155,2.854-9.655,2.621-14.28l-4.686.634c.616,2.891-2,5.186-3.864,6.979l4.072,1.687a7.16,7.16,0,0,1,.526-2.677c1.179-2.753-2.436-5.08-4.119-2.408a17.3,17.3,0,0,0-2.178,5.14c-.538,2.2,2.326,4.168,3.987,2.321a19.723,19.723,0,0,0,3.506-5.352l-4.36-.57c1.1,4.519-1.34,9.339-1.9,13.815h4.771l.132-1.143a2.393,2.393,0,0,0-1.751-2.3s2.3-8.9,1.935-10.214a2.8,2.8,0,0,0-3.536-1.964c-1.547.516-2.749,2.264-3.631,3.542a6.269,6.269,0,0,0-1.244,2.207q-.253.449.217-.13.654-.417-.073-.365a4.958,4.958,0,0,0-1.511-.214l-3.023-.428a6.563,6.563,0,0,0-1.89-.267l-.756-.107.24,2.043c.286.185,2.064-.4,2.414-.464q1.525-.268,3.051-.525,3.435-.58,6.877-1.11l-1.268-4.6c-2.7.468-5.422,1.112-8.144,1.391-2.48.254-4.413-.94-6.624-1.844-2.107-.861-3.541-1.326-4.534-3.523a26.293,26.293,0,0,1-1.916-7.4,63.368,63.368,0,0,1,.414-15.572c.314-2.6.583-5.235,1.151-7.792a31.431,31.431,0,0,1,2.984-7.432c1.164-2.28-1.892-5.059-3.746-2.891-.686.8-1.684,1.214-2.42,1.973a8.671,8.671,0,0,0-1.664,3.016,53.649,53.649,0,0,0-2.783,8.753c-1.2,5.88-1.071,12.064-1.087,18.036-.008,3.143-.061,6.3.114,9.436.172,3.087.77,6.115,1.049,9.189a81.59,81.59,0,0,1,.068,9.308c-.072,3.152,1.239,4.379,4.077,5.4,4.874,1.759,9.405.14,10.768-5.136,1.219-4.717,1.461-10.948-2.835-14.208-1.965-1.492-5.088-2.607-7.535-1.8a4.2,4.2,0,0,0-2.413,6.177c2.925,4.406,10.943,1.219,8.389-3.962a3.939,3.939,0,0,0-6.412-.877c-1.5,1.784-1.307,5.068-1.084,7.234.275,2.665,2.111,5.465,5.106,5.35,2.554-.1,4.651-2.83,3.644-5.287-1.131-2.758-5.408-1.79-4.6,1.268l1.369,5.185c.719,2.724,4.472,1.951,4.686-.634.22-2.667-.367-7.785-2.99-9.266-2.87-1.619-6.179,2.344-3.594,4.646,2.286,2.036,5.672-1.327,3.374-3.373l-.208-.185.7,1.686-.29.914-1.687.7-.989-.479.208.651a8.48,8.48,0,0,0,.472,1.649,9.244,9.244,0,0,1,.235,3.058l4.685-.634-1.369-5.185-4.6,1.268q1.264-.475.65-1.345a5.669,5.669,0,0,1-.09-1.262,12.814,12.814,0,0,0,.056-2.442q.272-1.208-1.475-1.234-.174,1.15.908,1.063c.805.5,1.683.513,2.395,1.259,2.113,2.22,1.428,6.693.551,9.321a2.3,2.3,0,0,1-2.995,1.8,23.205,23.205,0,0,0-2.33-.747q-.759-.414-.032.192.028-.776.056-1.552a68.9,68.9,0,0,0-.5-11.827c-1.107-8.029-.929-16.264-.6-24.352a43.293,43.293,0,0,1,1.646-11.163,51.264,51.264,0,0,1,1.892-5.336c.6-1.373,1.911-1.777,2.858-2.884l-3.747-2.891a36.8,36.8,0,0,0-3.465,8.571c-.664,2.964-.958,6.048-1.322,9.06-.763,6.309-1.15,12.716.113,18.99a21.788,21.788,0,0,0,2.857,7.844c1.616,2.38,3.734,3.1,6.281,4.148,2.6,1.072,4.944,2.348,7.854,2.15a95.737,95.737,0,0,0,9.738-1.585c3.038-.528,1.723-5.063-1.268-4.6-3.931.608-8.117.958-11.957,2-2.633.717-5.088,4.055-2.465,6.4,1.265,1.129,3.277,1.06,4.862,1.284a56.778,56.778,0,0,0,5.924.834,3.521,3.521,0,0,0,3.389-1.762c.417-.685.692-1.44,1.142-2.113a12.033,12.033,0,0,1,1.248-1.689l-1.838-.24.272.182-1.1-1.426c.243.867-.623,2.888-.849,3.736a28.369,28.369,0,0,0-1.167,4.552,4.891,4.891,0,0,0,3.463,5.438l-1.751-2.3-.132,1.143c-.354,3.055,4.394,3,4.771,0,.646-5.151,3.02-9.8,1.732-15.083-.451-1.849-3.522-2.494-4.36-.57a15.906,15.906,0,0,1-2.76,4.387l3.987,2.321a13.052,13.052,0,0,1,1.7-4l-4.119-2.408a13.438,13.438,0,0,0-1.178,5.084,2.411,2.411,0,0,0,4.072,1.687c3.289-3.167,6.12-6.8,5.091-11.621-.557-2.615-4.822-2.056-4.685.634a29.438,29.438,0,0,1-1.22,9.74c-.272.943-.573,2.419-1.407,3.053-.806.613-2.146.518-3.079.959-5.351,2.53-.694,11.02,4.265,10.044,2.217-.436,4.407-2.751,5.556-4.612,1.61-2.608,1.588-6.112,1.884-9.074q.5-5.044.742-10.109c.139-2.961-.01-5.951,1.138-8.74,1.167-2.837-3.446-4.073-4.6-1.268Z" transform="translate(1696.723 -324.089)" fill="#4b1d54"/>
      </g>
      <g id="Groupe_16" data-name="Groupe 16" transform="translate(-1720.607 331.612)">
        <path id="Tracé_41" data-name="Tracé 41" d="M-1689.8,452.3l-2.864.026c-1.882.017-3.389,2.729-1.687,4.072,2.393,1.886,6.166,4.124,9.109,2.073l-3.589-2.06a9.667,9.667,0,0,0,.267,2.945,8.6,8.6,0,0,0,.435,1.232,5.43,5.43,0,0,0,.267.584q.337.742-.044-.3l.7-1.687c.992-.844-.742-.269-1.339-.228a16.183,16.183,0,0,1-2.172.068c-1.792-.118-2.309-.835-2.631-2.568a51.937,51.937,0,0,1-.468-12.458c.183-3.067-4.588-3.056-4.771,0a63.757,63.757,0,0,0,.355,11.694c.391,3.14,1.115,6.165,4.322,7.474a15.411,15.411,0,0,0,8.418.285,2.828,2.828,0,0,0,2.358-2.581c.1-1.551-1.012-2.816-.925-4.456a2.4,2.4,0,0,0-3.59-2.059c-.787.549-2.707-.839-3.327-1.328l-1.687,4.072,2.864-.026c3.068-.028,3.076-4.8,0-4.771Z" transform="translate(1698.709 -441.698)" fill="#4b1d54"/>
      </g>
      <g id="Groupe_17" data-name="Groupe 17" transform="translate(-1712.654 262.889)">
        <path id="Tracé_42" data-name="Tracé 42" d="M-1674.308,292.8c1.723-3.444,3.816-6.6,4.911-10.338a28.51,28.51,0,0,0,.923-11.355c-.357-3.012-5.133-3.048-4.771,0a24.99,24.99,0,0,1-.753,10.087c-.976,3.332-2.892,6.124-4.429,9.2-1.37,2.738,2.744,5.157,4.119,2.408Z" transform="translate(1678.703 -268.835)" fill="#4b1d54"/>
      </g>
      <g id="Groupe_18" data-name="Groupe 18" transform="translate(-1731.717 311.69)">
        <path id="Tracé_43" data-name="Tracé 43" d="M-1717.631,392c-4.881-1.78-9.165,2.517-8.34,7.369.446,2.621,1.2,4.933,1.192,7.646-.01,2.843-.266,5.67-.052,8.511h4.771c-.226-2.191-1.168-4.069-1.618-6.2a11.193,11.193,0,0,1,.576-6.2l-4.686-.634c-.056,3.652-.126,7.925,1.195,11.377,1.165,3.046,4.7,5.306,7.466,2.516,2.508-2.53,2-7.768,1.928-11.014-.046-2.212-.14-4.425-.215-6.636-.057-1.7-.1-3.109-1.276-4.433a2.4,2.4,0,0,0-3.373,0c-2.506,2.764-4.217,5.423-4.172,9.273.023,1.981.179,3.964.343,5.938.144,1.737.063,3.779.717,5.415,1.124,2.817,5.74,1.588,4.6-1.268a13.276,13.276,0,0,1-.515-3.775c-.136-1.612-.256-3.227-.326-4.844a9.416,9.416,0,0,1,.33-4.115,12.185,12.185,0,0,1,2.4-3.251h-3.373c-.348-.393-.123-.326-.148.277-.027.642.045,1.317.066,1.957q.06,1.76.119,3.519a56.362,56.362,0,0,1-.075,7.375c-.052.522-.2,1.064-.217,1.583q-.555.847.172.571.61.077.191-.356a11.813,11.813,0,0,0-.507-1.569c-.1-.456-.155-.92-.214-1.381a50.72,50.72,0,0,1-.342-7.159c.043-2.812-3.806-3.076-4.685-.634a15.434,15.434,0,0,0-.876,6.8c.246,2.391,1.506,4.517,1.747,6.865.31,3,5,3.093,4.771,0-.287-3.813.315-7.638-.072-11.444-.183-1.8-2.959-9.011,1.232-7.482,2.889,1.054,4.134-3.555,1.268-4.6Z" transform="translate(1726.652 -391.587)" fill="#4b1d54"/>
      </g>
      <g id="Groupe_19" data-name="Groupe 19" transform="translate(-1715.593 289.59)">
        <path id="Tracé_44" data-name="Tracé 44" d="M-1657.751,362.239c-.542,2.68-.83,5.613-1.8,8.179-.873,2.3-2.856,3.056-5.134,3.416-4.64.732-11.525.943-14.189-3.675-2.456-4.257-2.641-9.98-2.38-14.753a51.563,51.563,0,0,1,3.984-16.552c1.158-2.842-3.456-4.079-4.6-1.269a53.5,53.5,0,0,0-4.218,20.644c.063,5.7.878,12.816,5.149,17.057,2.3,2.28,5.28,2.979,8.4,3.347a30.284,30.284,0,0,0,9.942-.352,9.873,9.873,0,0,0,6.932-4.893c1.554-2.978,1.862-6.636,2.518-9.881.605-3-3.992-4.28-4.6-1.268Z" transform="translate(1686.095 -335.998)" fill="#712679"/>
      </g>
      <g id="Groupe_20" data-name="Groupe 20" transform="translate(-1711.318 262.546)">
        <path id="Tracé_45" data-name="Tracé 45" d="M-1670.986,298.523c2.056-4.535,4.8-8.8,5.919-13.711a48.128,48.128,0,0,0,.967-7.477,27.1,27.1,0,0,0-.192-7.65c-.652-3-5.252-1.73-4.6,1.268a23.146,23.146,0,0,1,.022,6.382,37.536,37.536,0,0,1-.967,6.913c-1.086,4.222-3.483,7.927-5.268,11.866-1.258,2.775,2.852,5.2,4.119,2.408Z" transform="translate(1675.341 -267.973)" fill="#712679"/>
      </g>
      <g id="Groupe_21" data-name="Groupe 21" transform="translate(-1709.736 267.501)">
        <path id="Tracé_46" data-name="Tracé 46" d="M-1664.636,283.423c.884,4.46,1.162,9.76,4.009,13.485,2.364,3.093,5.915,4.9,8.547,7.723l1.687-4.072q-6.215.27-12.419.722c-3.282.242-7.457.18-8.462,4.09-.77,2.994,3.628,4.164,4.6,1.268.628-1.871,2.641-3.179,3.7-4.83,1.22-1.908,1.782-4.135,3.1-6l-4.36-1.838c-1.608,5.689,4.561,12.075,10.188,9.615,2.046-.895,1.156-3.758-.57-4.36-.768-.268-2.834-.577-3.4-1.19l.7,1.687c-.078-1.5.247-2.164-.877-3.4-2.069-2.278-5.434,1.1-3.374,3.373l.285.314-.7-1.686c-.007,1.468-.216,2.578,1.126,3.589s3.409,1.37,4.975,1.915l-.57-4.36c-1.715.75-3.531-2.984-3.179-4.228.771-2.728-2.858-3.966-4.36-1.838-1.416,2.006-1.946,4.5-3.41,6.463-1.415,1.9-3.083,3.175-3.864,5.5l4.6,1.268c.225-.876,6.72-.789,7.623-.847q4.326-.278,8.658-.462a2.415,2.415,0,0,0,1.687-4.072c-2.363-2.537-5.551-4.182-7.812-6.811a10.686,10.686,0,0,1-2.091-5.092c-.491-2.4-.952-4.8-1.428-7.2-.6-3.009-5.2-1.735-4.6,1.269Z" transform="translate(1671.363 -280.436)" fill="#712679"/>
      </g>
      <g id="Groupe_22" data-name="Groupe 22" transform="translate(-1713.241 298.895)">
        <path id="Tracé_47" data-name="Tracé 47" d="M-1657,376.841a28.709,28.709,0,0,1-2,5.5c-.877,1.764-1.282,2.278-3.173,2.8a11.535,11.535,0,0,1-9.359-1.839c-2.816-2.006-2.645-5.92-2.934-9.021q-.587-6.282-.938-12.581c-.173-3.052-4.945-3.073-4.771,0,.311,5.458.684,10.931,1.314,16.363.524,4.519,2.163,8.135,6.416,10.2a16.422,16.422,0,0,0,13.022,1.017c4.34-1.517,5.957-7.128,7.022-11.175.783-2.971-3.818-4.239-4.6-1.268Z" transform="translate(1680.179 -359.402)" fill="#712679"/>
      </g>
      <g id="Groupe_23" data-name="Groupe 23" transform="translate(-1710.401 308.506)">
        <path id="Tracé_48" data-name="Tracé 48" d="M-1651.583,389.928c-5.532.117-13.975.528-17.029-5.164-1.452-2.707-5.572-.3-4.119,2.408,3.986,7.429,13.761,7.683,21.148,7.527,3.066-.065,3.076-4.836,0-4.771Z" transform="translate(1673.037 -383.578)" fill="#712679"/>
      </g>
      <g id="Groupe_24" data-name="Groupe 24" transform="translate(-1708.315 313.481)">
        <path id="Tracé_49" data-name="Tracé 49" d="M-1667.474,397.787c-.793,3.087-.249,8.232,3.518,9.036a13.773,13.773,0,0,0,5.964.164,19.535,19.535,0,0,1,2.944-.8,13.116,13.116,0,0,1,1.768,0q.353.011.707.034.737.085-.059-.107l-.7-1.687c-.022-.527-.832.608-1.323.609a3.824,3.824,0,0,1-1.542-.844,12.026,12.026,0,0,1-2.757-3.208c-1.351-2-4.484-3.429-6.509-1.357a2.784,2.784,0,0,0-.32,3.471c.843,1.234,2.142,1.307,3.517,1.318a45.183,45.183,0,0,1,10.639,1.279c2.98.737,4.252-3.863,1.269-4.6a51.075,51.075,0,0,0-6.6-1.179q-1.509-.168-3.027-.233a11.752,11.752,0,0,1-3.1-.087l1.426,1.1-.166-.265.24,1.838.113-.316-1.1,1.425c-.54.3-.424-.249-.251.435a4.005,4.005,0,0,0,.7,1.036,15.142,15.142,0,0,0,1.606,1.89,11.4,11.4,0,0,0,4.11,2.749c2.8.937,7.324-1.049,7.828-4.216.661-4.154-4.791-4.1-7.484-3.741-1.974.264-3.446,1.023-5.487.808a4.3,4.3,0,0,1-1.288-.141c-.3-.171.123.194.028-.38a5.847,5.847,0,0,1-.063-2.755c.764-2.975-3.836-4.245-4.6-1.269Z" transform="translate(1667.789 -396.091)" fill="#712679"/>
      </g>
      <g id="Groupe_25" data-name="Groupe 25" transform="translate(-1731.816 305.107)">
        <path id="Tracé_50" data-name="Tracé 50" d="M-1721.683,381.4a2.5,2.5,0,0,1,2.553-1.593l-2.059-1.181q-.12-.686-.136-.066l.326-1.2c.11-.216.984-.538.353-.429a4.148,4.148,0,0,0-.855.326,8.092,8.092,0,0,0-1.349.745,6.337,6.337,0,0,1-1.752,1.06c-3.055.156-3.074,4.928,0,4.771,1.944-.1,3.078-1.157,4.682-2.049a10.551,10.551,0,0,0,2.344-1.108,3.291,3.291,0,0,0,.984-3.029,2.743,2.743,0,0,0-2.536-2.606,7.271,7.271,0,0,0-3.027.623,6.631,6.631,0,0,0-4.126,4.473c-.755,2.977,3.845,4.247,4.6,1.268Z" transform="translate(1726.902 -375.029)" fill="#712679"/>
      </g>
      <g id="Groupe_26" data-name="Groupe 26" transform="translate(-1732.451 308.145)">
        <path id="Tracé_51" data-name="Tracé 51" d="M-1724.931,388.387c1.75-1,3.781-.951,5.738-.947,3.07.005,3.075-4.766,0-4.771-2.828,0-5.636.166-8.146,1.6-2.666,1.522-.266,5.645,2.408,4.12Z" transform="translate(1728.5 -382.669)" fill="#712679"/>
      </g>
      <g id="Groupe_27" data-name="Groupe 27" transform="translate(-1703.705 294.777)">
        <path id="Tracé_52" data-name="Tracé 52" d="M-1656.168,352.274c.575,2.613,1.641,5.27,3.866,6.9a8.861,8.861,0,0,0,4.272,1.454,33.15,33.15,0,0,0,4.817.161,37.8,37.8,0,0,0,9.836-1.435,2.791,2.791,0,0,0,1.727-1.249,2.8,2.8,0,0,0,.177-2.049,7.34,7.34,0,0,0-2.329-3.319,12.938,12.938,0,0,0-8.6-3.372l.264,1.952a7.736,7.736,0,0,1,9.273,4.647,1.021,1.021,0,0,0,1.223.694,1.007,1.007,0,0,0,.694-1.223c-.824-2.928-3.61-4.674-6.406-5.411-3.673-.968-7.57-.546-11.276-.025-.964.136-1.926.282-2.889.425l-1.372.2a4.244,4.244,0,0,0-1.42.34,2.232,2.232,0,0,0-1.105,1.923,3.119,3.119,0,0,0,.957,2.205,16.63,16.63,0,0,0,1.857,1.566,25.929,25.929,0,0,0,2.1,1.525,10.876,10.876,0,0,0,4.8,1.74c3.911.373,7.5-1.774,11.286-2.318l-1.258-.959-.054.646a.972.972,0,0,0,.492.858,1.873,1.873,0,0,0,2.464-.668,2.176,2.176,0,0,0-.209-2.648c-1.273-1.561-3.751-1.807-5.6-1.519a1,1,0,0,0-.438,1.661,2.861,2.861,0,0,0,4-.04,1.006,1.006,0,0,0-.2-1.561,2.667,2.667,0,0,0-3.607.92,2.64,2.64,0,0,0,1.168,3.62,2.631,2.631,0,0,0,3.49-1.426,1.864,1.864,0,0,0-.672-2.142,2.6,2.6,0,0,0-2.153-.4c-1.8.4-2.643,2.214-2.961,3.86-.13.671.454,1.512,1.223,1.223a7.171,7.171,0,0,0,3.164-2.26c.879-1.118,1.425-2.851,0-3.8a3.607,3.607,0,0,0-1.793-.47,16.9,16.9,0,0,0-1.877-.041,6.106,6.106,0,0,0-3.7,1.218c-1.051.861-1.472,2.69-.037,3.424a3.79,3.79,0,0,0,1.841.225,4.723,4.723,0,0,0,2.2-.522,2.678,2.678,0,0,0,1.286-3.006c-.453-1.446-2.091-1.645-3.373-1.426a4.658,4.658,0,0,0-3.106,1.959c-.716,1.09-.791,2.785.479,3.514a5.469,5.469,0,0,0,4.292-.056,3.66,3.66,0,0,0,2.549-2.794,3.112,3.112,0,0,0-2.066-3.112,5.886,5.886,0,0,0-3.922-.047,3.666,3.666,0,0,0-2.607,2.967,2.1,2.1,0,0,0,.661,1.86,2.952,2.952,0,0,0,2.174.415,8.112,8.112,0,0,0,4-1.361,2.461,2.461,0,0,0,.58-3.691,4.43,4.43,0,0,0-3.708-1.293,4.892,4.892,0,0,0-3.55,1.691,3.744,3.744,0,0,0-.736,3.625c.577,1.5,2.173,1.84,3.619,1.669a5.7,5.7,0,0,0,3.75-1.808,2.581,2.581,0,0,0-.7-3.805,8.393,8.393,0,0,0-4.1-1.047,6.022,6.022,0,0,0-3.908.963c-1.911,1.413-2.707,4.465-.514,6.029a3.3,3.3,0,0,0,5.158-1.94,3.59,3.59,0,0,0-.953-3.1,2.937,2.937,0,0,0-3.514-.514,3.023,3.023,0,0,0-1.305,2.779,3.254,3.254,0,0,0,1.957,2.791,2.782,2.782,0,0,0,3.509-1c.808-1.305.139-2.726-.9-3.659a3.28,3.28,0,0,0-3.714-.79,2.207,2.207,0,0,0-.893,3.177,3.424,3.424,0,0,0,3.3,1.306,1.737,1.737,0,0,0,1.452-1.13,1.823,1.823,0,0,0-.522-1.855c-1.128-1.047-2.7-.152-3.145,1.09a1.01,1.01,0,0,0,.694,1.222,1.993,1.993,0,0,0,2.557-1.948,1.009,1.009,0,0,0-.994-.994,2.933,2.933,0,0,0-2.347,1.3l1.852.5a4.149,4.149,0,0,0-1.968-3.35,3.436,3.436,0,0,0-3.839.02,2.469,2.469,0,0,0-.15,3.64,3.111,3.111,0,0,0,4.145.028,2.081,2.081,0,0,0-.39-3.482,4.014,4.014,0,0,0-3.764.239,2.906,2.906,0,0,0-1.543,3.27c.524,1.615,2.642,1.554,3.7.565a2.672,2.672,0,0,0-.3-4.049,3.037,3.037,0,0,0-4.3.823,1,1,0,0,0,.156,1.2,2.1,2.1,0,0,0,2.868.187,1.819,1.819,0,0,0-.718-3,2.225,2.225,0,0,0-2.794,1.56,3.877,3.877,0,0,0,.793,3.309,6.23,6.23,0,0,0,2.449,1.933,7.322,7.322,0,0,0,3.2.744,1.751,1.751,0,0,0,1.729-2.48,3.276,3.276,0,0,0-2.765-2,1.941,1.941,0,0,0-1.674,2.715,1.687,1.687,0,0,0,1.886.763,5.377,5.377,0,0,0,1.864-1.15,1.027,1.027,0,0,0,.356-1.36,1,1,0,0,0-1.359-.357c-.345.265-.681.551-1.045.789q-.1.058-.2.119-.383.064.17.147c.151.147.095.188.116.332-.04.072-.029.054.032-.053a.063.063,0,0,1-.052.045c.126-.062.125-.072,0-.029q-.216.045.051.028a1.9,1.9,0,0,1,.534.44c.041.047.293.427.3.426-.061,0,.123-.411.123-.365a.839.839,0,0,0-.19,0,2.782,2.782,0,0,1-.377-.026,6.479,6.479,0,0,1-1.7-.45,3.622,3.622,0,0,1-2.372-2.565,1.012,1.012,0,0,1,.137-.574c.021-.047.126-.082.128-.087s0,0,0,.007c.019.049,0,.031-.065-.054a.767.767,0,0,1,.039-.191c.035-.061.131-.094.151-.125.065,0,.04,0-.075,0q.13.036-.052-.008.1.064-.054-.027.094.072-.035-.054l.156,1.2a1.076,1.076,0,0,1,1.192-.368.776.776,0,0,1,.458.968.671.671,0,0,1-.433.347c.015,0-.128.02-.128.02-.261.049-.035-.1-.036.027a1.12,1.12,0,0,1,.668-.891,2.291,2.291,0,0,1,1.457-.318c.2.033.454.1.53.228-.074-.127.008-.021-.144.128a1.11,1.11,0,0,1-1.43.055.44.44,0,0,1,.077-.746c1.131-.593,2.442.79,2.485,1.841a1,1,0,0,0,1.852.5.805.805,0,0,1,.63-.315l-.994-.994c.01.174.031.074,0,.053.006,0,.271.085-.041-.022l.694,1.223c.09-.248.186.039-.066-.122a.163.163,0,0,1-.091-.112c-.026-.066.173-.31.169-.343-.007-.048.016,0-.119,0a1.6,1.6,0,0,1-1.243-.463c-.081-.117-.042-.048-.032-.1s-.016-.056.063-.138a.775.775,0,0,1,.46-.165,2.238,2.238,0,0,1,1.52,1c.286.386.309.856-.227,1.03a1.224,1.224,0,0,1-1.274-.629,1.43,1.43,0,0,1-.052-1.151,1.208,1.208,0,0,1,.252-.343.267.267,0,0,1,.143-.063.929.929,0,0,1,.413-.006,1.415,1.415,0,0,1,.771,2.078,1.429,1.429,0,0,1-2.132.017c-.651-.759-.017-2.043.776-2.6,1.277-.9,3.109-.62,4.53-.3.481.108,1.617.333,1.62,1.021,0,.519-.911.926-1.294,1.085a4.108,4.108,0,0,1-2.284.311c-.613-.126-.7-.694-.555-1.24.379-1.419,1.965-1.909,3.282-1.761.488.055,1.3.221,1.465.776s-.8.889-1.188,1.063a6.214,6.214,0,0,1-2.338.537,2.041,2.041,0,0,0-.544,0c-.039.014,0,.083.031.1.081.053-.028-.025-.017-.1a1.466,1.466,0,0,1,.278-.746,2.541,2.541,0,0,1,1.785-.815,3.208,3.208,0,0,1,2.087.331.917.917,0,0,1,.42,1.179,2.519,2.519,0,0,1-1.593,1,4.463,4.463,0,0,1-1.119.168c-.213,0-.906.064-1.074-.117-.19-.2.275-.846.447-1.022a2.937,2.937,0,0,1,1.718-.809,2.271,2.271,0,0,1,.761.015c.217.048.211.05.2.214-.039.445-.54.693-1.057.778a6.219,6.219,0,0,1-1.026.049,2.223,2.223,0,0,0-.451-.014c.012-.017.09.215.149.218a3.725,3.725,0,0,1,.434-.486,3.147,3.147,0,0,1,.917-.416,7.35,7.35,0,0,1,2.194-.2q.541.013,1.08.051c.128.009.567.023.626.119.2.326-.614,1.139-.816,1.343a5,5,0,0,1-1.776,1.162l1.223,1.222a3.23,3.23,0,0,1,1.144-2.3.927.927,0,0,1,.832-.125c.1.038,0-.045.019-.07a.663.663,0,0,1-.223.222.569.569,0,0,1-.892-.481.6.6,0,0,1,.935-.488l-.2-1.561a.833.833,0,0,1-1.192.04l-.438,1.661a4.97,4.97,0,0,1,2.952.435c.243.126.651.338.709.64-.013-.068-.02.037-.021.065,0,.052-.08.062-.078.064a1.471,1.471,0,0,1,.257,0l.493.858.054-.646c.06-.714-.68-1.042-1.258-.958-2.969.427-5.71,1.837-8.685,2.211a8.076,8.076,0,0,1-4.168-.515,15.463,15.463,0,0,1-3.538-2.236,17.347,17.347,0,0,1-1.672-1.4c-.239-.245-.605-.757-.382-1.008-.019.022-.05.016.055-.033a1.847,1.847,0,0,1,.477-.089c.457-.069.914-.136,1.372-.2q1.26-.188,2.521-.375a31.62,31.62,0,0,1,9.973-.337c2.459.431,5.38,1.626,6.122,4.261l1.917-.528a9.865,9.865,0,0,0-4.321-5.152,9.8,9.8,0,0,0-7.4-.883,1,1,0,0,0,.264,1.952,10.95,10.95,0,0,1,6.436,2.161,8.411,8.411,0,0,1,2.278,2.379,1.911,1.911,0,0,1,.346,1.087c-.072.411-.59.468-.943.559a39.908,39.908,0,0,1-8.456,1.245,39.9,39.9,0,0,1-4.334-.058,8.564,8.564,0,0,1-3.6-.867c-2.186-1.219-3.074-3.813-3.58-6.115-.275-1.249-2.191-.72-1.917.528Z" transform="translate(1656.195 -349.044)" fill="#84bbd4"/>
      </g>
      <g id="Groupe_28" data-name="Groupe 28" transform="translate(-1706.627 297.034)">
        <path id="Tracé_53" data-name="Tracé 53" d="M-1662.025,355.715a10.753,10.753,0,0,0,6.044,8.627,18.223,18.223,0,0,0,6.538,1.319,33.67,33.67,0,0,0,6.721-.3,32.588,32.588,0,0,0,7.3-1.926l-1.223-.694c.252,1.869-1.48,3.5-3.05,4.14-2.219.909-4.772.8-7.124.891l-3.968.158a34.752,34.752,0,0,1-3.756.077c-2.23-.153-3.844-1.847-4.892-3.7a10.2,10.2,0,0,1-1.229-6.573l-1.917-.528a8.839,8.839,0,0,0,.99,5.519,24.426,24.426,0,0,0,1.685,2.519q.885,1.247,1.771,2.494a3.894,3.894,0,0,0,2.084,1.741,10.856,10.856,0,0,0,2.777.182q3.1.022,6.2-.169a11.915,11.915,0,0,0,5.932-1.523,1.007,1.007,0,0,0-.238-1.816,12.157,12.157,0,0,0-5.947-.284,1,1,0,0,0,0,1.917,13.382,13.382,0,0,0,3.07.423,7.528,7.528,0,0,0,2.876-.367c.848-.341,1.322-1.076,2.042-1.587a4.449,4.449,0,0,1,2.232-.814l-.264-1.952a13.337,13.337,0,0,0-2.853,1.176l-2.872,1.431c-.845.421-.483,1.531.238,1.817a5.5,5.5,0,0,0,6.551-2.291,1,1,0,0,0-1.122-1.46,93.514,93.514,0,0,1-15.687,2.031l.264,1.952a14.153,14.153,0,0,1,5.091-.446,1.006,1.006,0,0,0,.994-.994,1.013,1.013,0,0,0-.994-.994l-8.77-.623.264,1.952,3.933-1.15a1,1,0,0,0-.264-1.952l-4.624-.109a5.148,5.148,0,0,1-1.822-.162.449.449,0,0,1-.246-.188c-.041-.08,0-.12-.027-.148q0-.108.006-.018a.2.2,0,0,1-.122.158l-.766.1a2.826,2.826,0,0,1,2.017,1.64l1.561-1.2a18.5,18.5,0,0,1-4.965-8.292l-1.661.967c.075.085.038.2.024.313a1,1,0,0,0,.994.994,1.018,1.018,0,0,0,.994-.994,2.189,2.189,0,0,0-.607-1.718,1,1,0,0,0-1.661.967,20.516,20.516,0,0,0,5.477,9.169,1,1,0,0,0,1.561-1.2,4.723,4.723,0,0,0-2.785-2.442,1.4,1.4,0,0,0-1.837.677,2.143,2.143,0,0,0,.05,1.97c.705,1.335,2.3,1.368,3.619,1.4l4.82.114-.264-1.952-3.933,1.15a1,1,0,0,0,.264,1.952l8.77.623V365.71a15.713,15.713,0,0,0-5.619.516c-1.013.343-.912,2,.264,1.952a96.754,96.754,0,0,0,16.215-2.1l-1.123-1.46a3.523,3.523,0,0,1-4.306,1.377l.237,1.817,2.7-1.347a11.809,11.809,0,0,1,2.547-1.06c1.073-.252.866-2.037-.264-1.952a6.82,6.82,0,0,0-2.533.674,9.582,9.582,0,0,0-2.067,1.607,3.451,3.451,0,0,1-2.266.487,11.047,11.047,0,0,1-2.825-.353v1.917a10,10,0,0,1,4.891.284l-.237-1.816a8.832,8.832,0,0,1-4.259,1.205c-1.8.142-3.608.2-5.412.214q-1.355.013-2.712-.017a1.846,1.846,0,0,1-1.63-.569c-.567-.693-1.051-1.472-1.57-2.2s-1.062-1.466-1.565-2.218a7.12,7.12,0,0,1-1.367-4.932,1.027,1.027,0,0,0-.694-1.223,1,1,0,0,0-1.223.694,12.434,12.434,0,0,0,1.036,7.347c1.06,2.25,3.007,4.592,5.511,5.22a14.971,14.971,0,0,0,4.254.182l4.564-.182c2.715-.108,5.648.007,8.208-1.042,2.643-1.085,4.68-3.553,4.28-6.521a1,1,0,0,0-1.223-.694,31.854,31.854,0,0,1-12.036,2.211,21.779,21.779,0,0,1-6.1-.774,8.522,8.522,0,0,1-3.877-2.57,8.536,8.536,0,0,1-2.07-4.667,1.023,1.023,0,0,0-.994-.994,1,1,0,0,0-.994.994Z" transform="translate(1663.543 -354.721)" fill="#3a535c"/>
      </g>
      <path id="Tracé_54" data-name="Tracé 54" d="M-1629.99,358.728c-1.973,0-4.529-.023-7.083.031-1.339.028-1.711-.8-1.833-1.862a2.074,2.074,0,0,1,1.644-2.35c2.983-.832,5.992-.371,8.98.067a2.963,2.963,0,0,1,1.735.9c.455.484.972.988.742,1.724a1.639,1.639,0,0,1-1.628,1.211C-1628.093,358.476-1628.749,358.588-1629.99,358.728Z" transform="translate(-57.915 -57.305)" fill="#fcfdfc" fill-rule="evenodd"/>
      <g id="Groupe_29" data-name="Groupe 29" transform="translate(-1706.991 262.177)">
        <path id="Tracé_55" data-name="Tracé 55" d="M-1663.281,269.525c.066.679-.564,1.649-.757,2.371a6.505,6.505,0,0,0-.311,3.255c.532,1.935,2.6,2.74,4.435,2.574a3.855,3.855,0,0,0,3.6-4.174,6.58,6.58,0,0,0-.834-3.133,16.917,16.917,0,0,1-1-2.211,2.4,2.4,0,0,0-3.264-.856,2.442,2.442,0,0,0-.856,3.264,11.9,11.9,0,0,0,.8,1.939,2.448,2.448,0,0,1,.365,1.8l.325-1.2c-.279.658.416-.663.784.163l.326,1.2c-.118-1.739,1.327-3.219,1.153-4.993a2.452,2.452,0,0,0-2.385-2.385,2.4,2.4,0,0,0-2.385,2.385Z" transform="translate(1664.46 -267.045)" fill="#508823"/>
      </g>
      <g id="Groupe_30" data-name="Groupe 30" transform="translate(-1723.373 258.965)">
        <path id="Tracé_56" data-name="Tracé 56" d="M-1687.877,340.713c-.156,2.433-.134,4.975-.515,7.385a4.429,4.429,0,0,1-4.094,4.049c-1.853.314-4.189.306-5.736-.891-2.013-1.558-2.429-4.462-2.535-6.814-.508-11.271-.122-22.661-.138-33.944-.007-5.08.1-10.134,1.771-14.989,1.657-4.815,4.561-9.007,7.365-13.206a26.37,26.37,0,0,0,4.748-13.45c.083-1.149-.272-5.171,1.433-5.114,2.111.071,2.491,3.6,2.788,5.1a79.665,79.665,0,0,0,2.018,8.19c.644,2.08,1.037,4.4,2.206,6.27,1.293,2.066,3.615,2.836,5.5,4.231a14.959,14.959,0,0,1,4.777,5.813c1.295,2.781,5.409.361,4.12-2.408a18.061,18.061,0,0,0-4.582-6.029,27.875,27.875,0,0,0-2.928-2.2c-1.046-.685-2.4-1.115-3.02-2.258a14.672,14.672,0,0,1-.956-3c-.416-1.477-.909-2.93-1.307-4.412-.752-2.806-1.01-5.817-1.99-8.549a7.951,7.951,0,0,0-4.884-5.215,5.541,5.541,0,0,0-6.2,1.728c-1.716,2.242-1.564,5.535-1.768,8.215a18.2,18.2,0,0,1-2.484,8.179c-3,5.11-6.6,9.676-8.828,15.23-2.342,5.83-2.56,12.031-2.545,18.234q.023,10.207.061,20.413.015,5.111.031,10.222c.01,3.013.027,6.117,1.164,8.954,2.355,5.873,8.815,7.909,14.621,5.926,6.872-2.346,6.3-9.665,6.681-15.663.2-3.065-4.574-3.053-4.771,0Z" transform="translate(1705.666 -258.965)" fill="#040405"/>
      </g>
      <g id="Groupe_31" data-name="Groupe 31" transform="translate(-1735.059 300.807)">
        <path id="Tracé_57" data-name="Tracé 57" d="M-1722.291,364.219c-3.986-.05-10.063.162-11.383,4.868-.684,2.437-.606,5.24-.8,7.752-.208,2.691-.379,5.385-.458,8.083-.138,4.729-.526,10.309,1.4,14.747,2.036,4.681,6.26,5.9,11.024,5.668,3.056-.149,3.074-4.921,0-4.771-1.668.081-3.651.31-5.1-.707a5.935,5.935,0,0,1-2.045-3.553c-.891-3.609-.621-7.7-.513-11.385.113-3.855.414-7.7.741-11.543.121-1.426-.179-3.24,1.387-3.8a16.782,16.782,0,0,1,5.742-.586c3.071.039,3.073-4.731,0-4.771Z" transform="translate(1735.059 -364.214)" fill="#040405"/>
      </g>
      <g id="Groupe_32" data-name="Groupe 32" transform="translate(-1699.385 311.505)">
        <path id="Tracé_58" data-name="Tracé 58" d="M-1645.216,423.269c-.026,2.59-.578,5.776,1.052,8,1.446,1.974,3.8,2.546,6.118,2.685,4.857.291,10.922-1.065,11.994-6.637.533-2.769.538-5.666.973-8.461.467-3,1.01-5.99,1.413-9,.764-5.707.928-11.492-.741-17.062-.88-2.934-5.485-1.684-4.6,1.268,2.516,8.392.233,16.993-.95,25.4-.29,2.065-.393,4.148-.659,6.211-.254,1.978-1.457,2.941-3.4,3.34-1.561.321-4.182.59-5.678-.1-1.539-.714-.768-4.2-.754-5.642.03-3.071-4.74-3.073-4.771,0Z" transform="translate(1645.326 -391.121)" fill="#040405"/>
      </g>
      <g id="Groupe_33" data-name="Groupe 33" transform="translate(-1709.745 290.756)">
        <path id="Tracé_59" data-name="Tracé 59" d="M-1643.738,358.2a42.611,42.611,0,0,1-9.932,1.785c-2.625.175-6.185.784-8.6-.508-2.229-1.194-3.486-3.7-4.047-6.065-.48-2.026-.9-7.018,1.593-7.73a48.965,48.965,0,0,1,9.863-1.574c1.47-.108,2.942-.182,4.413-.25,1.624-.075,3.557-.416,5.074.34a9.245,9.245,0,0,1,4.554,6.953c.058,2.8-.468,6.014-3.427,7.11-2.854,1.057-1.62,5.67,1.268,4.6a9.873,9.873,0,0,0,6.152-6.012,14.233,14.233,0,0,0,0-9.549,15.246,15.246,0,0,0-6.423-7.358c-3.155-1.584-7.12-.9-10.513-.681a64.177,64.177,0,0,0-10.814,1.452,9.279,9.279,0,0,0-4.334,1.783,8.329,8.329,0,0,0-1.979,4.034c-1.507,5.936.363,13.334,5.73,16.778,3.083,1.977,6.91,1.685,10.407,1.508a49.558,49.558,0,0,0,12.277-2.018c2.921-.912,1.675-5.518-1.268-4.6Z" transform="translate(1671.386 -338.931)" fill="#040405"/>
      </g>
      <path id="Tracé_60" data-name="Tracé 60" d="M-1657.053,462.933a2.15,2.15,0,0,1,2.752,0c1.3,1.18,4.286,1.651,4.286,1.651s.413-2.811,1.563-3.275c1.92-.775,4.127-1.943,5.037-3.384a39.009,39.009,0,0,1-7.422.427c-3.135-.247-7.106-1.08-8.138-.775s-1.931.72-1.931,3.47S-1657.053,462.933-1657.053,462.933Z" transform="translate(-44.673 -119.612)" fill="#040405"/>
    </g>
  </svg>
