<svg id="Groupe_57" data-name="Groupe 57" xmlns="http://www.w3.org/2000/svg" width="33.385" height="36.96" viewBox="0 0 33.385 36.96">
    <g id="Groupe_54" data-name="Groupe 54" transform="translate(0 3.98)">
      <path id="Tracé_83" data-name="Tracé 83" d="M-805.887-198.4c-2.627-1.739-4.988-3.661-6.179-9.786-.835-4.3-1.463-5.517-1.74-5.862a.2.2,0,0,0-.311,0c-.277.346-.9,1.566-1.74,5.862-1.191,6.125-3.551,8.047-6.178,9.786-2.761,1.828-4.9,4.351-4.9,9.321s6.472,7.936,12.978,7.936,12.978-2.965,12.978-7.936S-803.126-196.57-805.887-198.4Z" transform="translate(826.939 214.122)" fill="#712679"/>
      <path id="Tracé_84" data-name="Tracé 84" d="M-764.227-209.914c-.655-2.912-1.144-3.84-1.379-4.133a.2.2,0,0,0-.311,0c-.235.294-.725,1.222-1.379,4.133a2.025,2.025,0,0,0,1.535.783A2.025,2.025,0,0,0-764.227-209.914Z" transform="translate(778.739 214.122)" fill="#508823"/>
      <circle id="Ellipse_57" data-name="Ellipse 57" cx="3.706" cy="3.706" r="3.706" transform="translate(13.471 17.426)" fill="#fff"/>
      <circle id="Ellipse_58" data-name="Ellipse 58" cx="3.706" cy="3.706" r="3.706" transform="translate(5.073 17.426)" fill="#fff"/>
      <circle id="Ellipse_59" data-name="Ellipse 59" cx="2.759" cy="2.759" r="2.759" transform="translate(13.868 19.182)" fill="#181818"/>
      <circle id="Ellipse_60" data-name="Ellipse 60" cx="2.759" cy="2.759" r="2.759" transform="translate(6.57 19.182)" fill="#181818"/>
    </g>
    <g id="Groupe_55" data-name="Groupe 55" transform="translate(16.936 12.603)">
      <path id="Tracé_85" data-name="Tracé 85" d="M-676.8-161.312a.358.358,0,0,1-.358-.358.358.358,0,0,1,.358-.358,3.58,3.58,0,0,0,3.576-3.576v-2.861h-3.219a.358.358,0,0,1-.358-.358.358.358,0,0,1,.358-.358h3.576a.357.357,0,0,1,.357.358v3.218A4.3,4.3,0,0,1-676.8-161.312Z" transform="translate(688.962 169.179)" fill="#f68906"/>
      <path id="Tracé_86" data-name="Tracé 86" d="M-734.378-161.312a4.3,4.3,0,0,1-4.291-4.291v-3.218a.358.358,0,0,1,.358-.358h3.576a.358.358,0,0,1,.358.358.358.358,0,0,1-.358.358h-3.219v2.861a3.581,3.581,0,0,0,3.576,3.576.358.358,0,0,1,.358.358A.358.358,0,0,1-734.378-161.312Z" transform="translate(738.669 169.179)" fill="#f68906"/>
      <path id="Tracé_87" data-name="Tracé 87" d="M-710.133-116.478l-.192-.2c-.749-.771-.955-2.927-.971-3.692a.358.358,0,0,0-.358-.351h-1.43a.358.358,0,0,0-.358.35c-.015.765-.221,2.92-.971,3.692l-.193.2c-.982,1.011-1.7,1.741-1.7,2.556a.358.358,0,0,0,.358.358h7.152a.358.358,0,0,0,.358-.358C-708.435-114.738-709.151-115.468-710.133-116.478Z" transform="translate(720.594 130.016)" fill="#f68906"/>
    </g>
    <path id="Tracé_88" data-name="Tracé 88" d="M-711.09-172.907h-8.583a.358.358,0,0,0-.358.358v5.722a4.711,4.711,0,0,0,4.649,4.649,4.711,4.711,0,0,0,4.649-4.649v-5.722A.357.357,0,0,0-711.09-172.907Z" transform="translate(740.542 184.795)" fill="#ffb100"/>
    <path id="Rectangle_98" data-name="Rectangle 98" d="M1.3,0H2.593A2.593,2.593,0,0,1,5.187,2.593v0A2.593,2.593,0,0,1,2.593,5.187H1.3A1.3,1.3,0,0,1,0,3.884V1.3A1.3,1.3,0,0,1,1.3,0Z" transform="translate(29.606 25.416) rotate(168.603)" fill="#712679"/>
    <g id="Groupe_56" data-name="Groupe 56" transform="translate(19.15 0)">
      <path id="Tracé_89" data-name="Tracé 89" d="M-708.8-203.6a.626.626,0,0,1-.3-.077l-.878-.477a1.019,1.019,0,0,1-.537-.893v-.728a1.019,1.019,0,0,1,.537-.893l.934-.523-1.123-.631a.629.629,0,0,1-.252-.854.629.629,0,0,1,.854-.252l.877.477a1.019,1.019,0,0,1,.537.893v.728a1.019,1.019,0,0,1-.537.893l-.976.5,1.164.658a.629.629,0,0,1,.252.854.63.63,0,0,1-.554.329Z" transform="translate(713.701 213.967)" fill="#b4a3d0"/>
      <path id="Tracé_90" data-name="Tracé 90" d="M-708.991-199.553l-.934.523a1.023,1.023,0,0,0-.525.739c.25.15.581.353.84.488l.976-.5a1.022,1.022,0,0,0,.531-.783c-.266-.137-.624-.33-.887-.471Z" transform="translate(713.65 206.328)" fill="#7b6eaf"/>
      <path id="Tracé_91" data-name="Tracé 91" d="M-691.277-219.941a.628.628,0,0,0,.3-.077l.878-.477a1.019,1.019,0,0,0,.537-.893v-.728a1.02,1.02,0,0,0-.537-.893l-.934-.523,1.123-.631a.629.629,0,0,0,.252-.854.629.629,0,0,0-.854-.252l-.878.477a1.02,1.02,0,0,0-.537.893v.728a1.019,1.019,0,0,0,.537.893l.976.5-1.164.658a.629.629,0,0,0-.252.854.629.629,0,0,0,.553.329Z" transform="translate(698.68 227.172)" fill="#f0b6d3"/>
      <path id="Tracé_92" data-name="Tracé 92" d="M-690.007-215.371l-.934-.523c-.258.166-.613.4-.872.569a1.025,1.025,0,0,0,.515.686l.976.5a6.673,6.673,0,0,1,.84-.485,1.024,1.024,0,0,0-.526-.743Z" transform="translate(698.588 219.534)" fill="#e076ab"/>
      <path id="Tracé_93" data-name="Tracé 93" d="M-706.516-223.8a.511.511,0,0,1-.511.511.511.511,0,0,1-.511-.511.511.511,0,0,1,.511-.511A.511.511,0,0,1-706.516-223.8Z" transform="translate(711.296 226.338)" fill="#f28f72"/>
      <circle id="Ellipse_61" data-name="Ellipse 61" cx="0.511" cy="0.511" r="0.511" transform="translate(10.456 7.121)" fill="#7ec0a7"/>
      <path id="Tracé_94" data-name="Tracé 94" d="M-682.9-185.263a.511.511,0,0,1-.511.511.511.511,0,0,1-.511-.511.511.511,0,0,1,.511-.511A.511.511,0,0,1-682.9-185.263Z" transform="translate(692.21 195.193)" fill="#7ec0a7"/>
      <path id="Tracé_95" data-name="Tracé 95" d="M-682.9-185.263a.511.511,0,0,1-.511.511.511.511,0,0,1-.511-.511.511.511,0,0,1,.511-.511A.511.511,0,0,1-682.9-185.263Z" transform="translate(692.21 195.193)" fill="#75a6da"/>
      <path id="Tracé_96" data-name="Tracé 96" d="M-726.974-203.892l.678.322a.113.113,0,0,0,.089.005l.644-.244a.125.125,0,0,1,.156.157l-.244.644a.113.113,0,0,0,.005.089l.322.678a.1.1,0,0,1-.139.139l-.678-.322a.114.114,0,0,0-.089-.005l-.644.244a.125.125,0,0,1-.157-.157l.244-.644a.113.113,0,0,0-.005-.089l-.322-.678A.1.1,0,0,1-726.974-203.892Z" transform="translate(727.126 209.844)" fill="#f0b6d3"/>
      <path id="Tracé_97" data-name="Tracé 97" d="M-672-211.845l.5.239a.084.084,0,0,0,.066,0l.478-.181a.093.093,0,0,1,.116.116l-.181.478a.084.084,0,0,0,0,.066l.239.5a.076.076,0,0,1-.1.1l-.5-.239a.084.084,0,0,0-.066,0l-.478.181a.093.093,0,0,1-.116-.116l.181-.478a.084.084,0,0,0,0-.066l-.239-.5a.076.076,0,0,1,.1-.1Z" transform="translate(682.665 216.27)" fill="#b4a3d0"/>
      <circle id="Ellipse_62" data-name="Ellipse 62" cx="0.237" cy="0.237" r="0.237" transform="translate(5.019 3.679)" fill="#7ec0a7"/>
      <circle id="Ellipse_63" data-name="Ellipse 63" cx="0.437" cy="0.437" r="0.437" transform="matrix(0.788, -0.616, 0.616, 0.788, 5.796, 0.538)" fill="#75a6da"/>
    </g>
  </svg>
