<svg xmlns="http://www.w3.org/2000/svg" width="39.483" height="49.9" viewBox="0 0 39.483 49.9">
	<g id="Calque_2" data-name="Calque 2" transform="translate(0.5 0.48)">
	  <path id="Tracé_29" data-name="Tracé 29" d="M31.212,23.332c-3.894-2.58-7.4-5.428-9.16-14.511-1.237-6.369-2.17-8.178-2.58-8.69a.3.3,0,0,0-.461,0c-.41.512-1.343,2.321-2.58,8.69-1.767,9.083-5.265,11.931-9.16,14.511C3.177,26.043,0,29.784,0,37.154S9.6,48.92,19.241,48.92s19.241-4.4,19.241-11.766S35.305,26.043,31.212,23.332Z" transform="translate(0 0)" fill="#e74c3c" stroke="#4e1d1d" stroke-width="1"/>
	  <path id="Tracé_30" data-name="Tracé 30" d="M64.191,6.261c-.97-4.318-1.7-5.7-2.045-6.13a.3.3,0,0,0-.461,0c-.35.435-1.075,1.812-2.045,6.127a2.813,2.813,0,0,0,4.551,0Z" transform="translate(-42.674 0)" fill="#539933" stroke="#4e1d1d" stroke-width="1"/>
	  <circle id="Ellipse_28" data-name="Ellipse 28" cx="5.496" cy="5.496" r="5.496" transform="translate(19.972 25.858)" fill="#fff" stroke="#4e1d1d" stroke-width="1"/>
	  <circle id="Ellipse_29" data-name="Ellipse 29" cx="5.496" cy="5.496" r="5.496" transform="translate(7.226 36.538) rotate(-86.83)" fill="#fff" stroke="#4e1d1d" stroke-width="1"/>
	  <circle id="Ellipse_30" data-name="Ellipse 30" cx="4.091" cy="4.091" r="4.091" transform="translate(20.561 28.461)" fill="#1f1f1f" stroke="#4e1d1d" stroke-width="1"/>
	  <circle id="Ellipse_31" data-name="Ellipse 31" cx="4.091" cy="4.091" r="4.091" transform="translate(9.74 28.461)" fill="#1f1f1f" stroke="#4e1d1d" stroke-width="1"/>
	</g>
  </svg>
