<?xml version="1.0" encoding="utf-8"?>
<!-- Generator: Adobe Illustrator 24.0.1, SVG Export Plug-In . SVG Version: 6.00 Build 0)  -->
<svg version="1.1" xmlns="http://www.w3.org/2000/svg" xmlns:xlink="http://www.w3.org/1999/xlink" x="0px" y="0px"
	 viewBox="0 0 64.96 53.94" style="enable-background:new 0 0 64.96 53.94;" xml:space="preserve">
<style type="text/css">
	.st0{fill:#6C6C6C;}
	.st1{fill:#7EB928;}
	.st2{fill:#DCDCDC;}
	.st3{fill:#F5A132;}
	.st4{fill:#E95557;}
	.st5{fill:#8A358A;}
	.st6{fill:#FFFFFF;}
	.st7{fill:#282828;}
	.st8{fill:#539933;}
	.st9{fill:#762D78;}
	.st10{fill:#E1E1E1;}
	.st11{fill:#1E1E1E;}
	.st12{fill:#407830;}
	.st13{fill:#E4E4E4;}
	.st14{fill:#F3DB93;}
	.st15{fill:#DDBC73;}
	.st16{fill:#3C99CE;}
	.st17{fill:#2889A3;}
	.st18{fill:#709E5A;}
	.st19{fill:#5B824A;}
	.st20{fill:#D1B542;}
	.st21{fill:#AA9739;}
	.st22{fill:#E26060;}
	.st23{fill:#C94C4C;}
</style>
<g id="big_x5F_menu">
</g>
<g id="small_x5F_menu">
	<g>
		<path class="st18" d="M54.15,36.03c-2.29-9.74-9.51-9.97-13.18-15.01C37.31,15.98,35.7,5.89,35.7,5.89
			C34.3-0.3,33.4,0.05,33.4,0.05s-0.9-0.35-2.31,5.84c0,0-1.6,10.08-5.27,15.12c-3.67,5.04-10.88,5.27-13.18,15.01
			C10.35,45.76,16.8,53.9,33.4,53.9S56.44,45.76,54.15,36.03z"/>
		<circle class="st6" cx="40.41" cy="34.76" r="6.18"/>
		<circle class="st7" cx="39.5" cy="36.16" r="4.53"/>
		<path class="st19" d="M33.4,53.9c-16.6,0-23.05-8.13-20.75-17.87c2.29-9.74,9.51-9.97,13.18-15.01
			c3.67-5.04,5.27-15.12,5.27-15.12c1.41-6.2,2.31-5.84,2.31-5.84V53.9z"/>
		<circle class="st10" cx="25.96" cy="34.76" r="6.18"/>
		<circle class="st11" cx="26.87" cy="36.16" r="4.53"/>
	</g>
</g>
</svg>
