<?xml version="1.0" encoding="utf-8"?>
<!-- Generator: Adobe Illustrator 24.0.1, SVG Export Plug-In . SVG Version: 6.00 Build 0)  -->
<svg version="1.1" xmlns="http://www.w3.org/2000/svg" xmlns:xlink="http://www.w3.org/1999/xlink" x="0px" y="0px"
	 viewBox="0 0 70.48 59.38" style="enable-background:new 0 0 70.48 59.38;" xml:space="preserve">
<style type="text/css">
	.st0{fill:#6C6C6C;}
	.st1{fill:#7EB928;}
	.st2{fill:#DCDCDC;}
	.st3{fill:#F5A132;}
	.st4{fill:#E95557;}
	.st5{fill:#8A358A;}
	.st6{fill:#FFFFFF;}
	.st7{fill:#282828;}
	.st8{fill:#539933;}
	.st9{fill:#762D78;}
	.st10{fill:#E1E1E1;}
	.st11{fill:#1E1E1E;}
	.st12{fill:#407830;}
	.st13{fill:#E4E4E4;}
	.st14{fill:#F3DB93;}
	.st15{fill:#DDBC73;}
</style>
<g id="big_x5F_menu">
</g>
<g id="small_x5F_menu">
	<g>
		<path class="st5" d="M41.95,41.5c-2.29-9.74-9.51-9.97-13.18-15.01c-3.67-5.04-5.27-15.12-5.27-15.12
			c-1.41-6.2-2.31-5.84-2.31-5.84s-0.9-0.35-2.31,5.84c0,0-1.6,10.08-5.27,15.12C9.96,31.54,2.74,31.76,0.45,41.5
			C-1.84,51.24,4.6,59.38,21.2,59.38S44.25,51.24,41.95,41.5z"/>
		<circle class="st6" cx="28.21" cy="40.23" r="6.18"/>
		<circle class="st7" cx="27.3" cy="41.64" r="4.53"/>
		<g>
			<path class="st8" d="M21.2,5.53c0,0-0.9-0.35-2.31,5.84c0,0-0.08,0.47-0.23,1.26l0,0c0,0,2.47,2.58,5.07,0c0,0,0,0,0,0
				c-0.15-0.79-0.23-1.26-0.23-1.26C22.1,5.17,21.2,5.53,21.2,5.53z"/>
		</g>
		<path class="st9" d="M21.2,59.38c-16.6,0-23.05-8.13-20.75-17.87c2.29-9.74,9.51-9.97,13.18-15.01
			c3.67-5.04,5.27-15.12,5.27-15.12c1.41-6.2,2.31-5.84,2.31-5.84V59.38z"/>
		<circle class="st10" cx="13.76" cy="40.23" r="6.18"/>
		<circle class="st11" cx="14.67" cy="41.64" r="4.53"/>
		<g>
			<path class="st12" d="M21.18,5.53c0,0-0.9-0.35-2.31,5.84c0,0-0.08,0.47-0.23,1.26l0,0c0,0,1.09,1.14,2.59,1.15"/>
		</g>
		<ellipse class="st13" cx="46.09" cy="12.45" rx="15.2" ry="12.45"/>
		<path class="st13" d="M38.35,23.16c0,0-2.8,2.27-5.7,2.54c0,0,2.14-3.17,2.08-4.98"/>
		<ellipse class="st6" cx="55.28" cy="18.03" rx="15.2" ry="12.45"/>
		<path class="st6" d="M63.03,28.75c0,0,2.8,2.27,5.7,2.54c0,0-2.14-3.17-2.08-4.98"/>
	</g>
</g>
</svg>
