<svg id="big_menu" xmlns="http://www.w3.org/2000/svg" width="61.92" height="61.926" viewBox="0 0 61.92 61.926">
	<g id="Groupe_3" data-name="Groupe 3" transform="translate(0)">
	  <g id="Groupe_2" data-name="Groupe 2">
		<path id="Tracé_1" data-name="Tracé 1" d="M44.065,7.851a3.927,3.927,0,0,0-1.9-5.766,30.987,30.987,0,0,0-36.6,11.194c-.054.073-.109.145-.157.218l-.012.012c-.048.079-.1.151-.151.23-.036.06-.079.121-.121.181-.054.079-.109.163-.157.248-.218.326-.429.659-.629,1h.006A30.621,30.621,0,0,0,.97,23.27,31.332,31.332,0,0,0,.444,36.2a30.962,30.962,0,0,0,61.482-5.343,3.873,3.873,0,0,0-3.9-3.8H30.786a4.19,4.19,0,0,0-4.2,3.355,4.041,4.041,0,0,0,4,4.708h1.142c11.913,0,12.693,17.818.8,18.622a23.386,23.386,0,0,1-3.56-.03A22.911,22.911,0,0,1,8.144,32.306c-.006-.079-.012-.163-.012-.248v-.036a2.683,2.683,0,0,1,3.385-2.575,10.434,10.434,0,0,0,2.273.254,10.251,10.251,0,0,0,8.879-5.113,2.691,2.691,0,0,1,2.321-1.348h4.7a4.052,4.052,0,0,0,4.038-3.687,4.24,4.24,0,0,0-4.334-4.412H24.76a2.636,2.636,0,0,1-2.242-1.221c-.115-.187-.236-.363-.363-.544a2.681,2.681,0,0,1,1.36-4.05,23,23,0,0,1,15.63.266A3.9,3.9,0,0,0,43.89,8.117Zm-36.4,7.706c.036-.054.079-.109.109-.163a7.048,7.048,0,0,1,12.209,1.124.128.128,0,0,1,.024.06,6.979,6.979,0,0,1,.6,2.841,7.058,7.058,0,0,1-.5,2.605.181.181,0,0,0-.024.06,7.055,7.055,0,0,1-6.528,4.382,6.968,6.968,0,0,1-3.433-.895A7.053,7.053,0,0,1,7.661,15.558Z" transform="translate(-0.006 0)" fill="#f3f3f3"/>
		<path id="Tracé_2" data-name="Tracé 2" d="M81.435,25.538a7.011,7.011,0,0,1-.5,2.605.629.629,0,0,0-.024.06,7.055,7.055,0,0,1-6.528,4.382,6.951,6.951,0,0,1-3.433-.895,7.053,7.053,0,0,1-2.466-10.015l.109-.163a7.053,7.053,0,0,1,12.209,1.124.128.128,0,0,1,.024.06A6.881,6.881,0,0,1,81.435,25.538Z" transform="translate(-26.642 -7.314)" fill="#f3f3f3"/>
		<g id="Groupe_1" data-name="Groupe 1" transform="translate(14.167 32.074)">
		  <path id="Tracé_3" data-name="Tracé 3" d="M41.417,69.768c-8.885,0-14.343-3.639-17.7-11.792a3.556,3.556,0,0,1,6.576-2.708c2.242,5.452,5.156,7.386,11.121,7.386a3.557,3.557,0,1,1,.006,7.114Z" transform="translate(-23.445 -53.065)" fill="#f3f3f3"/>
		</g>
	  </g>
	</g>
  </svg>
