<?xml version="1.0" encoding="utf-8"?>
<!-- Generator: Adobe Illustrator 24.0.1, SVG Export Plug-In . SVG Version: 6.00 Build 0)  -->
<svg version="1.1" xmlns="http://www.w3.org/2000/svg" xmlns:xlink="http://www.w3.org/1999/xlink" x="0px" y="0px"
	 viewBox="0 0 49.53 72.32" style="enable-background:new 0 0 49.53 72.32;" xml:space="preserve">
<style type="text/css">
	.st0{fill:#6C6C6C;}
	.st1{fill:#7EB928;}
	.st2{fill:#DCDCDC;}
	.st3{fill:#F5A132;}
	.st4{fill:#E95557;}
	.st5{fill:#8A358A;}
	.st6{fill:#FFFFFF;}
	.st7{fill:#282828;}
	.st8{fill:#539933;}
	.st9{fill:#762D78;}
	.st10{fill:#E1E1E1;}
	.st11{fill:#1E1E1E;}
	.st12{fill:#407830;}
	.st13{fill:#E4E4E4;}
	.st14{fill:#F3DB93;}
	.st15{fill:#DDBC73;}
</style>
<g id="big_x5F_menu">
</g>
<g id="small_x5F_menu">
	<g>
		<path class="st5" d="M48.29,40.9c-2.6-11.07-10.81-11.33-14.98-17.06c-4.17-5.73-5.99-17.19-5.99-17.19C25.72-0.4,24.7,0,24.7,0
			s-1.02-0.4-2.62,6.64c0,0-1.82,11.46-5.99,17.19C11.92,29.57,3.71,29.83,1.11,40.9C-1.5,51.97,5.83,61.21,24.7,61.21
			S50.89,51.97,48.29,40.9z"/>
		<circle class="st6" cx="32.67" cy="39.46" r="7.02"/>
		<circle class="st7" cx="31.63" cy="41.05" r="5.14"/>
		<g>
			<path class="st8" d="M24.7,0c0,0-1.02-0.4-2.62,6.64c0,0-0.09,0.54-0.26,1.43l0,0c0,0,2.81,2.93,5.77,0c0,0,0,0,0,0
				c-0.18-0.9-0.26-1.43-0.26-1.43C25.72-0.4,24.7,0,24.7,0z"/>
		</g>
		<path class="st9" d="M24.7,61.21c-18.87,0-26.2-9.25-23.59-20.32c2.6-11.07,10.81-11.33,14.98-17.06
			c4.17-5.73,5.99-17.19,5.99-17.19C23.68-0.4,24.7,0,24.7,0V61.21z"/>
		<circle class="st10" cx="16.24" cy="39.46" r="7.02"/>
		<circle class="st11" cx="17.28" cy="41.05" r="5.14"/>
		<path class="st14" d="M24.7,72.32l17.79-4.07c1.31-0.3,2.28-1.39,2.44-2.72l2.32-19.9c0.25-2.12-1.64-3.88-3.74-3.48L24.7,45.72
			V72.32z"/>
		<path class="st15" d="M24.7,72.32L6.91,68.24c-1.31-0.3-2.28-1.39-2.44-2.72l-2.32-19.9c-0.25-2.12,1.64-3.88,3.74-3.48
			l18.81,3.57V72.32z"/>
		<ellipse transform="matrix(0.9952 -0.0984 0.0984 0.9952 -5.522 0.6001)" class="st9" cx="3.33" cy="56.31" rx="3.3" ry="5.57"/>
		<g>
			<path class="st12" d="M24.68,0c0,0-1.02-0.4-2.62,6.64c0,0-0.09,0.54-0.26,1.43l0,0c0,0,1.24,1.3,2.95,1.3"/>
		</g>
		
			<ellipse transform="matrix(0.0791 -0.9969 0.9969 0.0791 -13.5725 97.9292)" class="st5" cx="46.22" cy="56.31" rx="5.57" ry="3.3"/>
	</g>
</g>
</svg>
