<svg xmlns="http://www.w3.org/2000/svg" width="41.894" height="34" viewBox="0 0 41.894 34">
	<g id="Calque_2" data-name="Calque 2" transform="translate(0 -0.02)">
	  <g id="Groupe_8" data-name="Groupe 8" transform="translate(18.333 5.835)">
		<path id="Tracé_26" data-name="Tracé 26" d="M113.163,35.595H95.777a3.088,3.088,0,0,1-3.087-3.087h0a3.088,3.088,0,0,1,3.087-3.087h17.386a3.088,3.088,0,0,1,3.087,3.087h0A3.088,3.088,0,0,1,113.163,35.595Z" transform="translate(-92.69 -29.42)" fill="#6d6d6d"/>
		<path id="Tracé_27" data-name="Tracé 27" d="M113.163,71.925H95.777a3.088,3.088,0,0,1-3.087-3.088h0a3.088,3.088,0,0,1,3.087-3.087h17.386a3.088,3.088,0,0,1,3.087,3.087h0A3.087,3.087,0,0,1,113.163,71.925Z" transform="translate(-92.69 -58.564)" fill="#6d6d6d"/>
		<path id="Tracé_28" data-name="Tracé 28" d="M113.163,108.265H95.777a3.088,3.088,0,0,1-3.087-3.087h0a3.088,3.088,0,0,1,3.087-3.087h17.386a3.088,3.088,0,0,1,3.087,3.087h0A3.088,3.088,0,0,1,113.163,108.265Z" transform="translate(-92.69 -87.717)" fill="#6d6d6d"/>
		<circle id="Ellipse_22" data-name="Ellipse 22" cx="1.094" cy="1.094" r="1.094" transform="translate(19.494 1.994)" fill="#7eb928"/>
		<circle id="Ellipse_23" data-name="Ellipse 23" cx="1.094" cy="1.094" r="1.094" transform="translate(16.697 1.994)" fill="#dcdcdc"/>
		<circle id="Ellipse_24" data-name="Ellipse 24" cx="1.094" cy="1.094" r="1.094" transform="translate(19.494 8.96)" fill="#dcdcdc"/>
		<circle id="Ellipse_25" data-name="Ellipse 25" cx="1.094" cy="1.094" r="1.094" transform="translate(16.697 8.96)" fill="#7eb928"/>
		<circle id="Ellipse_26" data-name="Ellipse 26" cx="1.094" cy="1.094" r="1.094" transform="translate(19.494 16.367)" fill="#f6a133"/>
		<circle id="Ellipse_27" data-name="Ellipse 27" cx="1.094" cy="1.094" r="1.094" transform="translate(16.697 16.367)" fill="#e95758"/>
	  </g>
	  <path id="Tracé_29" data-name="Tracé 29" d="M21.7,16.229c-2.708-1.794-5.143-3.774-6.369-10.089C14.472,1.711,13.824.453,13.539.1a.2.2,0,0,0-.32,0c-.285.356-.934,1.614-1.794,6.042-1.228,6.315-3.661,8.3-6.369,10.089C2.209,18.114,0,20.715,0,25.839S6.671,34.02,13.378,34.02s13.378-3.058,13.378-8.181S24.548,18.114,21.7,16.229Z" transform="translate(0 0)" fill="#8b368b"/>
	  <path id="Tracé_30" data-name="Tracé 30" d="M62.8,4.36C62.13,1.357,61.626.4,61.383.1a.2.2,0,0,0-.32,0c-.243.3-.748,1.26-1.422,4.26a1.956,1.956,0,0,0,3.165,0Z" transform="translate(-47.844 0)" fill="#539933"/>
	  <circle id="Ellipse_28" data-name="Ellipse 28" cx="3.821" cy="3.821" r="3.821" transform="translate(13.887 17.985)" fill="#fff"/>
	  <circle id="Ellipse_29" data-name="Ellipse 29" cx="3.821" cy="3.821" r="3.821" transform="translate(5.024 25.411) rotate(-86.83)" fill="#fff"/>
	  <circle id="Ellipse_30" data-name="Ellipse 30" cx="2.844" cy="2.844" r="2.844" transform="translate(14.296 19.795)" fill="#1f1f1f"/>
	  <circle id="Ellipse_31" data-name="Ellipse 31" cx="2.844" cy="2.844" r="2.844" transform="translate(6.772 19.795)" fill="#1f1f1f"/>
	</g>
  </svg>
