<svg xmlns="http://www.w3.org/2000/svg" width="32.838" height="17.896" viewBox="0 0 32.838 17.896">
    <g id="Groupe_52" data-name="Groupe 52" transform="translate(-681.321 -858.078)">
      <path id="Tracé_78" data-name="Tracé 78" d="M-893.009,1273.8h4.438a6.526,6.526,0,0,0,3.89-1.238,5.527,5.527,0,0,0,.619-.53,3.722,3.722,0,0,0,1.248-2.549v-3.863a2.6,2.6,0,0,1,1.038-2.116c.05-.036.1-.072.158-.107a5.257,5.257,0,0,1,2.279-.557,4.087,4.087,0,0,0,1.924-.584,2.733,2.733,0,0,0,.634-.523,3.758,3.758,0,0,0,.52-2.237h-4.681a5.4,5.4,0,0,0-3.69,1.352,5.588,5.588,0,0,0-.994,1.377,6.647,6.647,0,0,0-.725,3.074v2.727a2.571,2.571,0,0,1-.832,1.717,2.648,2.648,0,0,1-1.509.624h-1.56s-.884-.156-1.925,1.144A2.991,2.991,0,0,0-893.009,1273.8Z" transform="translate(1574.348 -397.823)" fill="#dd3140"/>
      <path id="Tracé_79" data-name="Tracé 79" d="M-796.273,1245.509H-800.1a3.436,3.436,0,0,0-.78-2.5,5.325,5.325,0,0,0-2.7-1.144v10.286a8.2,8.2,0,0,0,1.47,4.757,6.613,6.613,0,0,0,5.864,2.85c6.294-.156,7.282-4.837,7.282-7.906S-791.826,1245.509-796.273,1245.509Zm0,10.784a3.213,3.213,0,0,1-2.871-1.751,4.957,4.957,0,0,1-.64-2.483v-3.082h3.988a3.314,3.314,0,0,1,3.19,3.329C-792.606,1253.8-793.3,1256.293-796.273,1256.293Z" transform="translate(1503.125 -383.79)" fill="#fff"/>
    </g>
  </svg>
