<svg xmlns="http://www.w3.org/2000/svg" width="39.133" height="39.378" viewBox="0 0 39.133 39.378">
    <g id="Groupe_50" data-name="Groupe 50" transform="translate(-196.073 -318.466)">
      <path id="Tracé_75" data-name="Tracé 75" d="M196.492,343.164c2.483,1.034,4.73,1.954,6.956,2.922a1.187,1.187,0,0,1,.48.738,5.847,5.847,0,0,0,11.545-1.2,1.671,1.671,0,0,1,.625-1.125c1.849-1.264,3.74-2.469,5.636-3.663a2.878,2.878,0,0,1,1.147-.392,7.179,7.179,0,1,0-7.86-8.379,4.012,4.012,0,0,1-.56,1.4c-1.224,1.877-2.469,3.742-3.764,5.57a2.223,2.223,0,0,1-1.116.655c-.9.289-1.828.522-2.756.726a2.249,2.249,0,0,1-1.228.042c-2.933-1.2-5.834-2.471-8.768-3.665a1.011,1.011,0,0,1-.731-1.292,19.523,19.523,0,1,1,.823,9.1C196.788,344.216,196.687,343.82,196.492,343.164Z" transform="translate(0 0)" fill="#fff"/>
      <path id="Tracé_76" data-name="Tracé 76" d="M311.117,380.03a4.856,4.856,0,1,1,4.86-4.809A4.881,4.881,0,0,1,311.117,380.03Zm-.051-1.109a3.73,3.73,0,0,0,3.793-3.662,3.756,3.756,0,1,0-7.511-.075A3.729,3.729,0,0,0,311.066,378.921Z" transform="translate(-89.001 -41.887)" fill="#fff"/>
      <path id="Tracé_77" data-name="Tracé 77" d="M246.608,442.78c.81.353,1.473.664,2.151.934a3,3,0,0,0,3.946-1.538,2.938,2.938,0,0,0-1.573-3.916c-.655-.306-1.326-.578-2.075-.9a4.222,4.222,0,0,1,5.463,2.341,4.278,4.278,0,0,1-2.419,5.619A4.187,4.187,0,0,1,246.608,442.78Z" transform="translate(-40.823 -95.797)" fill="#fff"/>
    </g>
  </svg>
